<svg xmlns="http://www.w3.org/2000/svg" viewBox="0 0 32 32" fill="none">
  <defs>
    <linearGradient id="sky" x1="4" y1="2" x2="28" y2="30" gradientUnits="userSpaceOnUse">
      <stop stop-color="#2563eb"/>
      <stop offset="0.45" stop-color="#38bdf8"/>
      <stop offset="1" stop-color="#bae6fd"/>
    </linearGradient>
  </defs>
  <rect width="32" height="32" rx="7" fill="url(#sky)"/>
  <rect x="5" y="6" width="22" height="20" rx="3.5" fill="#fff" fill-opacity="0.1" stroke="#fff" stroke-opacity="0.22" stroke-width="0.6"/>
  <rect x="7" y="8" width="9" height="8" rx="1.8" fill="#7dd3fc" fill-opacity="0.9"/>
  <circle cx="10" cy="11.5" r="1.6" fill="#fff" fill-opacity="0.85"/>
  <path d="M13.5 13.2c0-1.4 1-2.4 2.2-2.4s2.2 1 2.2 2.4" stroke="#fff" stroke-opacity="0.7" stroke-width="0.7" stroke-linecap="round"/>
  <rect x="17" y="8" width="8" height="8" rx="1.8" fill="#fbbf24" fill-opacity="0.88"/>
  <path d="M18.2 11.2 21 13.4 23.8 11.2" stroke="#fff" stroke-opacity="0.9" stroke-width="0.75" stroke-linecap="round" stroke-linejoin="round"/>
  <rect x="18.2" y="10.6" width="6.6" height="4.8" rx="0.6" stroke="#fff" stroke-opacity="0.55" stroke-width="0.55"/>
  <rect x="7" y="17" width="9" height="7" rx="1.8" fill="#a78bfa" fill-opacity="0.88"/>
  <rect x="7" y="17" width="9" height="2.2" rx="1.8" fill="#fff" fill-opacity="0.28"/>
  <circle cx="9.8" cy="21.2" r="0.75" fill="#fff" fill-opacity="0.75"/>
  <circle cx="12.2" cy="21.2" r="0.75" fill="#fff" fill-opacity="0.75"/>
  <circle cx="14.6" cy="21.2" r="0.75" fill="#fff" fill-opacity="0.45"/>
  <rect x="17" y="17" width="8" height="7" rx="1.8" fill="#fde68a" fill-opacity="0.92"/>
  <path d="M18.5 19.3h5M18.5 21h3.8M18.5 22.7h4.5" stroke="#fff" stroke-opacity="0.55" stroke-width="0.65" stroke-linecap="round"/>
</svg>
